<?xml version="1.0" standalone="no"?>
<!DOCTYPE svg PUBLIC "-//W3C//DTD SVG 20010904//EN"
 "http://www.w3.org/TR/2001/REC-SVG-20010904/DTD/svg10.dtd">
<svg version="1.0" xmlns="http://www.w3.org/2000/svg"
 width="700.000000pt" height="700.000000pt" viewBox="0 0 700.000000 700.000000"
 preserveAspectRatio="xMidYMid meet">
<metadata>
Created by potrace 1.11, written by Peter Selinger 2001-2013
</metadata>
<g transform="translate(0.000000,700.000000) scale(0.100000,-0.100000)"
fill="#000000" stroke="none">
<path d="M5 6988 c-3 -7 -4 -1581 -3 -3498 l3 -3485 3495 0 3495 0 0 3495 0
3495 -3493 3 c-2789 2 -3494 0 -3497 -10z m2608 -2013 c10 -27 28 -79 39 -115
11 -36 24 -69 29 -74 5 -6 9 -16 9 -24 0 -8 6 -28 14 -45 8 -18 16 -41 19 -52
3 -11 20 -58 37 -105 17 -47 34 -94 37 -105 3 -11 11 -34 19 -52 8 -17 14 -37
14 -45 0 -8 3 -18 6 -21 7 -6 60 -152 70 -192 3 -11 9 -29 14 -40 5 -11 23
-63 40 -115 17 -52 35 -103 41 -112 5 -10 9 -23 9 -29 0 -6 6 -25 14 -42 8
-18 16 -41 19 -52 3 -11 20 -58 37 -105 18 -47 36 -98 40 -115 5 -16 15 -48
24 -70 51 -137 120 -330 176 -495 12 -36 24 -72 27 -80 22 -56 65 -178 69
-195 3 -11 8 -27 11 -35 16 -43 63 -173 82 -230 23 -65 28 -80 51 -135 7 -16
16 -43 20 -60 5 -16 22 -68 38 -115 16 -47 28 -88 25 -92 -2 -5 -155 -8 -339
-8 l-334 0 -14 32 c-7 18 -21 60 -31 93 -9 33 -23 76 -30 95 -7 19 -21 62 -30
95 -9 33 -28 92 -41 132 -13 39 -24 80 -24 92 0 11 -4 22 -9 25 -5 3 -12 23
-16 43 -4 21 -13 50 -21 65 l-15 28 -532 0 c-292 0 -537 -4 -543 -8 -6 -4 -21
-41 -33 -82 -12 -41 -26 -83 -32 -92 -5 -10 -9 -26 -9 -36 0 -10 -11 -50 -24
-88 -13 -38 -38 -116 -56 -174 -18 -58 -40 -130 -50 -160 l-18 -55 -341 -3
c-269 -2 -341 0 -341 10 0 7 21 72 46 143 25 72 49 145 54 163 4 18 12 38 18
45 5 7 12 23 15 37 3 14 19 63 37 110 17 47 47 130 65 185 19 55 55 159 80
230 26 72 57 162 70 200 47 138 76 220 85 240 4 11 11 29 13 40 3 11 20 58 37
105 17 47 42 117 55 155 13 39 38 108 55 155 17 47 34 94 37 105 2 11 8 29 13
40 5 11 19 49 31 85 12 36 42 121 66 190 24 69 57 166 74 215 17 50 37 104 43
120 7 17 21 55 30 85 10 30 20 62 23 70 29 77 65 179 70 195 3 11 12 35 20 53
l14 32 392 -2 391 -3 19 -50z m2662 24 c39 -5 106 -14 150 -19 44 -5 107 -16
140 -24 33 -8 80 -20 105 -26 25 -6 49 -15 54 -21 6 -5 17 -9 27 -9 38 0 197
-98 256 -157 123 -125 183 -287 183 -493 -1 -195 -57 -363 -165 -489 -52 -61
-198 -145 -265 -153 -28 -3 -30 -21 -3 -26 10 -2 32 -10 50 -18 17 -8 38 -14
46 -14 9 0 18 -4 21 -9 3 -5 18 -12 32 -15 44 -11 136 -75 191 -132 84 -86
130 -190 157 -352 25 -147 18 -261 -25 -417 -57 -207 -216 -382 -439 -485
-119 -55 -181 -74 -341 -104 -74 -14 -183 -16 -748 -16 l-661 0 0 1488 c0 819
3 1492 7 1495 10 11 1150 7 1228 -4z"/>
<path d="M2185 4493 c-3 -15 -12 -48 -19 -73 -8 -25 -19 -65 -26 -90 -21 -78
-50 -176 -94 -325 -15 -49 -33 -110 -41 -135 -20 -71 -66 -221 -80 -265 -7
-22 -20 -67 -30 -100 -9 -33 -20 -69 -25 -80 -14 -36 -40 -131 -40 -148 0 -16
32 -17 374 -17 222 0 377 4 381 9 3 5 -1 27 -8 48 -17 46 -39 117 -62 198 -9
33 -20 69 -24 80 -8 19 -19 55 -56 180 -10 33 -21 69 -25 80 -4 11 -15 47 -25
80 -10 33 -28 92 -40 130 -12 39 -30 97 -39 130 -10 33 -24 78 -31 100 -7 22
-20 67 -30 100 -33 119 -50 147 -60 98z"/>
<path d="M4685 4469 c-3 -8 -4 -156 -3 -329 l3 -315 215 -3 c162 -2 234 1 291
13 42 8 86 15 98 15 12 0 29 4 39 10 9 5 33 16 53 25 50 22 95 69 120 124 32
69 32 239 1 298 -29 55 -128 133 -169 133 -10 0 -31 7 -48 16 -43 23 -592 35
-600 13z"/>
<path d="M4687 3303 c-4 -3 -7 -172 -7 -374 l0 -369 26 -6 c45 -11 576 3 614
16 160 57 230 125 264 258 35 132 11 262 -63 344 -25 28 -54 54 -65 59 -12 5
-28 13 -36 18 -86 50 -165 61 -459 61 -147 0 -271 -3 -274 -7z"/>
</g>
</svg>
